G75*
%MOIN*%
%OFA0B0*%
%FSLAX25Y25*%
%IPPOS*%
%LPD*%
%AMOC8*
5,1,8,0,0,1.08239X$1,22.5*
%
%ADD10C,0.00800*%
D10*
X0166945Y0145055D02*
X0166945Y0153717D01*
X0176000Y0162772D02*
X0184661Y0162772D01*
X0193717Y0164740D02*
X0201591Y0164740D01*
X0201591Y0162378D01*
X0201591Y0136394D01*
X0201591Y0134031D01*
X0193717Y0134031D01*
X0201591Y0136394D02*
X0205134Y0136394D01*
X0205134Y0137969D01*
X0205134Y0160803D01*
X0208283Y0160803D01*
X0208283Y0137969D01*
X0208283Y0136394D01*
X0211827Y0136394D01*
X0211827Y0132063D01*
X0215370Y0132063D01*
X0215370Y0136000D01*
X0215370Y0140724D01*
X0215370Y0158047D01*
X0215370Y0162772D01*
X0215370Y0166709D01*
X0211827Y0166709D01*
X0211827Y0162378D01*
X0211827Y0158047D01*
X0215370Y0158047D01*
X0211827Y0158047D02*
X0211827Y0140724D01*
X0211827Y0136394D01*
X0208283Y0137969D02*
X0205134Y0137969D01*
X0211827Y0140724D02*
X0215370Y0140724D01*
X0215370Y0136000D02*
X0239386Y0136000D01*
X0240567Y0137969D01*
X0240567Y0160803D01*
X0242929Y0160803D01*
X0242929Y0137969D01*
X0240567Y0137969D01*
X0240567Y0160803D02*
X0239386Y0162772D01*
X0215370Y0162772D01*
X0211827Y0162378D02*
X0208283Y0162378D01*
X0208283Y0160803D01*
X0205134Y0160803D02*
X0205134Y0162378D01*
X0201591Y0162378D01*
X0193717Y0153717D02*
X0193717Y0145055D01*
X0184661Y0136000D02*
X0176000Y0136000D01*
M02*
